<svg id="Layer_1" data-name="Layer 1" xmlns="http://www.w3.org/2000/svg" viewBox="0 0 326.63 287.5"><defs><style>.cls-1{fill:#fff;}.cls-2{fill:#d1212a;}</style></defs><path class="cls-1" d="M146,182.38a89,89,0,0,0-9.55-11.95,21.1,21.1,0,0,0-1.85-1.63,8.13,8.13,0,0,1-1-12,65.49,65.49,0,0,0,5.67-7.11,34.94,34.94,0,0,0,6.27-20.39q0-9.66-5.57-19.69-5.4-10-12.92-14.91T107.29,88a168,168,0,0,0-25.43-1.93,140.06,140.06,0,0,0-49.77,8.64A69.42,69.42,0,0,0,7.91,109.66c-13.4,13-9.39,26.5,9.1,29l.83.1a8.12,8.12,0,0,0,5.24-1.21q7.65-4.86,16.39-10.29a121.48,121.48,0,0,1,20.1-10.14,57.36,57.36,0,0,1,20.89-3.92,51.56,51.56,0,0,1,24,6,7.4,7.4,0,0,1,4.34,6.92q0,4.74-4.08,10.78a39.57,39.57,0,0,1-8.4,9.37,38.44,38.44,0,0,1-12.37,5.54q-7.44,2-20.53,4.66a213.46,213.46,0,0,0-20.75,5l-.15,0a15.44,15.44,0,0,0-9.43,20.76,21.76,21.76,0,0,0,2.73,4.68,16.25,16.25,0,0,0,13.45,6.79,21.48,21.48,0,0,0,6.5-1.17,92.48,92.48,0,0,1,30.7-5.51q22.86,0,31.94,13.89a34,34,0,0,1,5.74,18.52,22.23,22.23,0,0,1-9.38,18.69,90.3,90.3,0,0,1-21.65,12.36,65.38,65.38,0,0,1-23.46,4A133.59,133.59,0,0,1,46.12,252a38.42,38.42,0,0,1-13.45-5.54c-4.16-2.71-7.63-6.86-13.31-11.8a2,2,0,0,0-.88-.37,5.77,5.77,0,0,0-1.29,0,.47.47,0,0,0-.17,0c-5,2.18-5.48,3.17-9.81,7.65C6,243.29,2.37,252.32,2.33,252.42a29.55,29.55,0,0,0-.49,16.82,6.24,6.24,0,0,0,2.8,3.39c1.33.69,2.69,1.32,4.07,1.92a217.92,217.92,0,0,0,22.53,7.91,121.48,121.48,0,0,0,35.51,5,121.31,121.31,0,0,0,38.87-6.16q18.38-6.15,30.82-17.11t16-24.72a100,100,0,0,0,3.63-25.2A53.12,53.12,0,0,0,146,182.38Z"/><path class="cls-2" d="M323.31,110.45a43.83,43.83,0,0,1,3.07,21.45,76,76,0,0,1-4.81,20.24,56.85,56.85,0,0,1-15.39,22.12A76.81,76.81,0,0,1,282.75,188a180.79,180.79,0,0,1-31.09,8.32,183.91,183.91,0,0,1-33.34,3.1q-38.55,0-61-17.75a14.92,14.92,0,0,1-5.75-12A23.39,23.39,0,0,1,154.4,159c.35-.69.73-1.37,1.12-2a13.17,13.17,0,0,1,14.76-6,68.84,68.84,0,0,1,8.49,2.91q9,3.72,17.84,7.29a59.75,59.75,0,0,0,17.61,4.28q14,.94,16.58.94,10.38,0,25.2-4.57a196.18,196.18,0,0,0,20.77-7.53A49.27,49.27,0,0,0,292.94,143a22.13,22.13,0,0,0,6-15.06,25.13,25.13,0,0,0-.47-5.78q-3.11-10.32-21.62-10.31a115.5,115.5,0,0,0-12.39.7q-6.54.7-15.88,1.93t-16.88,1.94q-7.53.7-14.15.7-5.75,0-13.45.62t-11.51.61a52.86,52.86,0,0,1-12.95-1.46q-2.64-.65-9.87-1.56a30.62,30.62,0,0,1-11.57-3.42q-4.35-2.52-9.73-9.67Q140,90.94,140,78.69A55,55,0,0,1,142,64.51a89.37,89.37,0,0,1,23.61-31.26Q180.35,20.92,203.44,11A135.25,135.25,0,0,1,227.7,2.7,132.48,132.48,0,0,1,253.13,0q15.35,0,25.31,1a81.28,81.28,0,0,1,19.83,4.65,100.06,100.06,0,0,1,18.53,9.45,9,9,0,0,1,4.24,7.6v.06A23.88,23.88,0,0,1,317.52,35Q314,41,309,43.18q-6.81,3.1-12,3.11a10.52,10.52,0,0,1-4.51-.88,18.08,18.08,0,0,1-4-2.67q-2.11-1.79-4-3.13a15.27,15.27,0,0,0-4.8-2.17,125.82,125.82,0,0,0-32.87-4.57,97.24,97.24,0,0,0-33.93,5.66Q197.65,44.18,188.65,52t-10.4,14a26.41,26.41,0,0,0,.93,6q.94,3.75,3.87,4.75Q197.23,82,218.56,82q9.49,0,28.39-1.43t28.74-1.44a108.46,108.46,0,0,1,24,2.4q8.55,3.81,13,8.82a44.1,44.1,0,0,1,7.38,12.1Q321.51,106.1,323.31,110.45Z"/></svg>