<svg xmlns="http://www.w3.org/2000/svg" viewBox="0 0 1632.43 450.71"><defs><style>.cls-1,.cls-10,.cls-13,.cls-14,.cls-17,.cls-3,.cls-4,.cls-5,.cls-7,.cls-9{fill:none;}.cls-1,.cls-11,.cls-14,.cls-16,.cls-17,.cls-2,.cls-6,.cls-7,.cls-9{stroke:#000;}.cls-1,.cls-10,.cls-11,.cls-12,.cls-13,.cls-14,.cls-15,.cls-16,.cls-17,.cls-2,.cls-3,.cls-4,.cls-5,.cls-6,.cls-7,.cls-8,.cls-9{stroke-miterlimit:10;}.cls-1,.cls-10,.cls-2{stroke-width:9px;}.cls-10,.cls-15,.cls-3,.cls-4,.cls-5,.cls-8{stroke:#fff;}.cls-3{stroke-width:5px;}.cls-14,.cls-15,.cls-4{stroke-width:4px;}.cls-5,.cls-6,.cls-7,.cls-8{stroke-width:2px;}.cls-15,.cls-8{fill:#fff;}.cls-9{stroke-width:8px;}.cls-12{fill:#424242;stroke:#424242;}.cls-13{stroke:#bcbcbc;}.cls-16,.cls-17{stroke-width:10px;}</style></defs><g id="Layer_1" data-name="Layer 1"><polyline class="cls-1" points="287.38 21.79 326.21 65.88 287.38 111.23"/><path class="cls-2" d="M287.38,32.7A36.3,36.3,0,1,0,323.68,69,36.3,36.3,0,0,0,287.38,32.7ZM305,76.42a14.5,14.5,0,0,1-4,6.2,14.38,14.38,0,0,1-6.2,4,14.48,14.48,0,0,1-7.42,1.66h-.3a19.23,19.23,0,0,1-9.73-2.63l-3.89-3a19.28,19.28,0,0,1-5-8.5L267.81,69a14.56,14.56,0,0,1,1.66-7.42,14.43,14.43,0,0,1,4-6.2,14.32,14.32,0,0,1,6.2-4,14.43,14.43,0,0,1,7.42-1.66h.3a19.22,19.22,0,0,1,9.72,2.63l3.9,3a19.35,19.35,0,0,1,4.95,8.5l.69,5.12A14.45,14.45,0,0,1,305,76.42Z" transform="translate(-48.3 -2.49)"/><polyline class="cls-1" points="44.79 111.23 5.96 67.14 44.79 21.79"/><path class="cls-2" d="M141.38,32.7A36.3,36.3,0,1,0,177.68,69,36.3,36.3,0,0,0,141.38,32.7ZM160.43,69v.3A19.16,19.16,0,0,1,157.8,79l-3,3.9a19.16,19.16,0,0,1-8.5,5l-5.12.69a14.45,14.45,0,0,1-7.42-1.66,14.32,14.32,0,0,1-6.2-4,14.32,14.32,0,0,1-4-6.2,14.45,14.45,0,0,1-1.66-7.42V69a19.16,19.16,0,0,1,2.63-9.72l3-3.9a19.16,19.16,0,0,1,8.5-5l5.12-.69a14.45,14.45,0,0,1,7.42,1.66,14.38,14.38,0,0,1,6.2,4,14.32,14.32,0,0,1,4,6.2A14.45,14.45,0,0,1,160.43,69Z" transform="translate(-48.3 -2.49)"/><circle class="cls-2" cx="469.2" cy="66.66" r="62.16"/><polyline class="cls-3" points="500.12 89.08 469.2 66.66 469.2 16.88"/><circle class="cls-4" cx="469.2" cy="66.66" r="57.13"/><line class="cls-5" x1="468.39" y1="67.33" x2="438.81" y2="31.68"/><path class="cls-6" d="M741.6,63.89A9.48,9.48,0,0,1,731.54,62l-.15-.15,0,0c-.25-.31-.49-.63-.73-.94s-.49-.62-.73-.94v0s-.93-2.18-.94-2.21v0a4.51,4.51,0,0,1-.17-1.23,11.93,11.93,0,0,1-.16-1.23,6.84,6.84,0,0,1,.33-2.46l.93-2.21,1.44-1.86.94-.73a4.73,4.73,0,0,1,2-1.19c.6-.25.9-.39,1.05-.46-.08,0,.34-.15,0,0h.08l.63-.09a32.32,32.32,0,0,0-3.94-4.49c-7.09.07-14-1.08-21.17-1.51a46.55,46.55,0,0,0-6.36,0c-.87.06-1.74.15-2.6.26l-.38.05a95.12,95.12,0,0,1-13.85,1.29,32.19,32.19,0,0,0-.38,46.31c.38,0,.77,0,1.16,0a14.63,14.63,0,0,1,7.11,1.51c1.13.09,2.25.19,3.37.32,2.49.27,5,.75,7.46,1-.51-.13,2.48-.14,4.19-.16.54-.16,4.62-.72,5.15-.8,2.94-.46,5.9-.84,8.86-1.16,2.6-.28,5.21-.47,7.82-.6a32.13,32.13,0,0,0,9.74-23.08c0-.51,0-1,0-1.51A4.54,4.54,0,0,1,741.6,63.89Z" transform="translate(-48.3 -2.49)"/><path class="cls-7" d="M782.6,65.16S750.1,91.34,710,91.34s-72.6-26.18-72.6-26.18S669.9,39,710,39,782.6,65.16,782.6,65.16Z" transform="translate(-48.3 -2.49)"/><path class="cls-8" d="M710,53.3a12.23,12.23,0,1,0,12.66,12.23A12.45,12.45,0,0,0,710,53.3Zm3.26,13.55a2.63,2.63,0,0,1-.74,1.15,2.69,2.69,0,0,1-1.14.74A2.73,2.73,0,0,1,710,69a7.8,7.8,0,0,1-1-.12,3.6,3.6,0,0,1-2.53-2.54,6,6,0,0,1-.13-1,3.59,3.59,0,0,1,.49-1.81l.56-.72a3.58,3.58,0,0,1,1.57-.92l.95-.12a2.73,2.73,0,0,1,1.38.3,2.69,2.69,0,0,1,1.14.74s0,0,.06.07l0,0c.07.07.12.16.18.23a2.35,2.35,0,0,1,.19.25,3.34,3.34,0,0,1,.55,1.1c0,.31.09.63.13,1A2.58,2.58,0,0,1,713.26,66.85Z" transform="translate(-48.3 -2.49)"/><circle class="cls-9" cx="810.75" cy="62.78" r="26.44"/><path d="M874,82.08a12.43,12.43,0,0,1,3.67-.16,10.18,10.18,0,0,1,2.74.68,8.25,8.25,0,0,1,2.1,1.26,3.43,3.43,0,0,1,1.29,2c.4,1.73-.11,4.28.63,5.71s2.24,2.17,4.21,2.49a22.74,22.74,0,0,1,2.81.63,10.14,10.14,0,0,1,2.23,1.13,10.55,10.55,0,0,1,3.72,2.94,11.6,11.6,0,0,1,1.77,4.68,16,16,0,0,1-.22,6.47l-1,.87a16,16,0,0,1-6.46-.48,11.82,11.82,0,0,1-4.46-2.27,10.5,10.5,0,0,1-2.52-4,9.94,9.94,0,0,1-.88-2.35,21,21,0,0,1-.32-2.85c-.11-2-.65-3.6-2-4.46s-3.93-.66-5.6-1.25a3.38,3.38,0,0,1-1.84-1.5,8.07,8.07,0,0,1-1-2.22,10,10,0,0,1-.37-2.79,11.92,11.92,0,0,1,.55-3.64Z" transform="translate(-48.3 -2.49)"/><circle class="cls-2" cx="1578.4" cy="68.15" r="49.54"/><polyline class="cls-10" points="1541.93 70.59 1577.2 38.15 1614.86 69.02"/><circle class="cls-10" cx="1577.68" cy="74.48" r="4.08"/><path class="cls-10" d="M1630.05,94.34a4.08,4.08,0,1,1-4.07-4.08,4.08,4.08,0,0,1,4.07,4.08" transform="translate(-48.3 -2.49)"/><circle class="cls-10" cx="1577.68" cy="57.3" r="4.08"/></g><g id="Layer_2" data-name="Layer 2"><path class="cls-11" d="M985.87,55.5c-3.65,4.65-7.19-8.72-15.34-7.31-7.9-.08-13.56,6.89-13.42,14.71" transform="translate(-48.3 -2.49)"/><path class="cls-11" d="M957.11,62.9c.76,14.09,16.56,22.21,26.82,32.24,7.21-6.36,16.64-13.69,21.63-19.71,15.61-15.42-7.1-39.64-19.69-19.93" transform="translate(-48.3 -2.49)"/><path class="cls-12" d="M957.21,62.57c.77,14.34,15.45,22.58,25.67,31.54l-12-46.5c-8-.08-13.8,7-13.66,15" transform="translate(-48.3 -2.49)"/><path class="cls-11" d="M983.94,98.62c-58-35.33-17.64-69.3,0-46.74C1001.85,29.24,1041.74,63.54,983.94,98.62ZM970.53,48.11C962.63,48,957,55,957.11,62.82c.76,14.09,16.56,22.21,26.82,32.24,7.21-6.36,16.64-13.69,21.63-19.71,15.61-15.42-7.1-39.64-19.69-19.93C982.22,60.07,978.68,46.7,970.53,48.11Z" transform="translate(-48.3 -2.49)"/><path class="cls-13" d="M962.25,56.76a11,11,0,0,0-.77,6.9,17.17,17.17,0,0,0,2.32,5" transform="translate(-48.3 -2.49)"/><path class="cls-11" d="M1106.05,59.19a23.05,23.05,0,1,0,23,23A23.05,23.05,0,0,0,1106.05,59.19Zm2.71,17.51-.56.72a3.61,3.61,0,0,1-1.58.92l-.95.12a3.91,3.91,0,0,1-2.52-1,.1.1,0,0,0,0,0l0,0a.7.7,0,0,1-.13-.17,2.39,2.39,0,0,1-.28-.35,3.53,3.53,0,0,1-.51-1c0-.32-.09-.63-.13-1a2.64,2.64,0,0,1,.31-1.38,3.27,3.27,0,0,1,1.88-1.88,2.64,2.64,0,0,1,1.38-.31,6.69,6.69,0,0,1,1,.13,3.58,3.58,0,0,1,2.53,2.52,7.39,7.39,0,0,1,.12,1A3.58,3.58,0,0,1,1108.76,76.7Z" transform="translate(-48.3 -2.49)"/><path class="cls-14" d="M1093.9,67.62V45c.49-4.87,5.34-8.67,11.1-8.85,6.08-.2,11.48,3.7,12,8.85V67.62Z" transform="translate(-48.3 -2.49)"/><path class="cls-15" d="M1105.1,78l-3.16,8.56h8.19l-3.76-8.6A.68.68,0,0,0,1105.1,78Z" transform="translate(-48.3 -2.49)"/><line class="cls-16" x1="1152.51" y1="68.16" x2="1181.3" y2="68.15"/><line class="cls-16" x1="1166.91" y1="83.53" x2="1166.91" y2="54.73"/><line class="cls-16" x1="1265.11" y1="47.8" x2="1330.71" y2="47.8"/><line class="cls-16" x1="1265.11" y1="68.15" x2="1330.71" y2="68.15"/><line class="cls-16" x1="1265.11" y1="88.51" x2="1330.71" y2="88.51"/><line class="cls-16" x1="1393.7" y1="42.52" x2="1444.51" y2="94.71"/><line class="cls-16" x1="1391.24" y1="95.75" x2="1443.43" y2="44.93"/><circle class="cls-16" cx="140.3" cy="280.91" r="37.6"/><path class="cls-16" d="M121.9,440.2H255v-65a30.06,30.06,0,0,0-14.34-25.62,98.62,98.62,0,0,0-104.34,0,30.1,30.1,0,0,0-14.42,25.68Z" transform="translate(-48.3 -2.49)"/><rect class="cls-17" x="298.54" y="318.51" width="227.04" height="127.2" rx="17.7"/><circle class="cls-17" cx="411.35" cy="388.32" r="40.21"/><path class="cls-17" d="M381.21,280.91h60.31a10,10,0,0,1,10,10v27.56a0,0,0,0,1,0,0H371.14a0,0,0,0,1,0,0V291A10.07,10.07,0,0,1,381.21,280.91Z"/><line class="cls-17" x1="388.58" y1="299.71" x2="434.48" y2="299.71"/><circle class="cls-17" cx="410.86" cy="388.09" r="14.18"/></g></svg>