<svg xmlns="http://www.w3.org/2000/svg" width="133.88" height="95.341" viewBox="0 0 133.88 95.341">
  <g id="left-click" transform="translate(5.96 2.927)">
    <path id="Path_7" data-name="Path 7" d="M44.79,111.23,5.96,67.14,44.79,21.79" transform="translate(-5.96 -21.79)" fill="none" stroke="#000" stroke-miterlimit="10" stroke-width="9"/>
    <path id="Path_8" data-name="Path 8" d="M141.38,32.7A36.3,36.3,0,1,0,177.68,69a36.3,36.3,0,0,0-36.3-36.3ZM160.43,69v.3A19.16,19.16,0,0,1,157.8,79l-3,3.9a19.16,19.16,0,0,1-8.5,5l-5.12.69a14.45,14.45,0,0,1-7.42-1.66,14.32,14.32,0,0,1-6.2-4,14.32,14.32,0,0,1-4-6.2,14.45,14.45,0,0,1-1.66-7.42V69a19.16,19.16,0,0,1,2.63-9.72l3-3.9a19.16,19.16,0,0,1,8.5-5l5.12-.69a14.45,14.45,0,0,1,7.42,1.66,14.38,14.38,0,0,1,6.2,4,14.32,14.32,0,0,1,4,6.2A14.45,14.45,0,0,1,160.43,69Z" transform="translate(-54.26 -24.28)" stroke="#000" stroke-miterlimit="10" stroke-width="9"/>
  </g>
</svg>
