<svg xmlns="http://www.w3.org/2000/svg" width="133.89" height="95.341" viewBox="0 0 133.89 95.341">
  <g id="right-click" transform="translate(4.5 2.974)">
    <path id="Path_5" data-name="Path 5" d="M287.38,21.79l38.83,44.09-38.83,45.35" transform="translate(-202.78 -21.79)" fill="none" stroke="#000" stroke-miterlimit="10" stroke-width="9"/>
    <path id="Path_6" data-name="Path 6" d="M287.38,32.7A36.3,36.3,0,1,0,323.68,69a36.3,36.3,0,0,0-36.3-36.3ZM305,76.42a14.5,14.5,0,0,1-4,6.2,14.38,14.38,0,0,1-6.2,4,14.48,14.48,0,0,1-7.42,1.66h-.3a19.23,19.23,0,0,1-9.73-2.63l-3.89-3a19.28,19.28,0,0,1-5-8.5L267.81,69a14.56,14.56,0,0,1,1.66-7.42,14.43,14.43,0,0,1,4-6.2,14.32,14.32,0,0,1,6.2-4,14.43,14.43,0,0,1,7.42-1.66h.3a19.22,19.22,0,0,1,9.72,2.63l3.9,3a19.35,19.35,0,0,1,4.95,8.5l.69,5.12A14.45,14.45,0,0,1,305,76.42Z" transform="translate(-251.08 -24.28)" stroke="#000" stroke-miterlimit="10" stroke-width="9"/>
  </g>
</svg>
