<svg xmlns="http://www.w3.org/2000/svg" width="21.981" height="24.352" viewBox="0 0 21.981 24.352">
  <g id="search" transform="translate(1.5 1.5)">
    <ellipse id="Ellipse_3" data-name="Ellipse 3" cx="6.164" cy="6.416" rx="6.164" ry="6.416" fill="none" stroke="#000" stroke-miterlimit="10" stroke-width="3"/>
    <path id="Path_13" data-name="Path 13" d="M873.082,81.94a4.828,4.828,0,0,1,1.426-.062,3.957,3.957,0,0,1,1.065.264,3.2,3.2,0,0,1,.816.49,1.333,1.333,0,0,1,.5.777c.155.672-.043,1.663.245,2.218a2.064,2.064,0,0,0,1.636.967,8.842,8.842,0,0,1,1.092.245,3.941,3.941,0,0,1,.866.439,4.1,4.1,0,0,1,1.445,1.142,4.506,4.506,0,0,1,.688,1.818,6.216,6.216,0,0,1-.085,2.514l-.389.338a6.217,6.217,0,0,1-2.51-.186,4.591,4.591,0,0,1-1.733-.882,4.079,4.079,0,0,1-.979-1.554,3.858,3.858,0,0,1-.342-.913,8.147,8.147,0,0,1-.125-1.107,2.04,2.04,0,0,0-.777-1.733c-.524-.334-1.527-.256-2.176-.486a1.313,1.313,0,0,1-.715-.583,3.136,3.136,0,0,1-.388-.862A3.883,3.883,0,0,1,872.5,83.7a4.632,4.632,0,0,1,.214-1.414Z" transform="translate(-862.469 -70.291)"/>
  </g>
</svg>
