<svg id="Component_32_2" data-name="Component 32 – 2" xmlns="http://www.w3.org/2000/svg" width="425.317" height="79" viewBox="0 0 425.317 79">
  <g id="Group_62" data-name="Group 62" transform="translate(-747.341 -27)">
    <path id="Path_3" data-name="Path 3" d="M38.6,111.528a23.53,23.53,0,0,0-2.525-3.159,5.578,5.578,0,0,0-.489-.431,2.149,2.149,0,0,1-.264-3.173,17.315,17.315,0,0,0,1.5-1.88,9.237,9.237,0,0,0,1.658-5.391A10.678,10.678,0,0,0,37,92.289a10.549,10.549,0,0,0-3.416-3.942,12.934,12.934,0,0,0-5.224-1.771,44.415,44.415,0,0,0-6.723-.51A37.029,37.029,0,0,0,8.483,88.35,18.353,18.353,0,0,0,2.091,92.3C-1.452,95.739-.392,99.308,4.5,99.969l.219.026a2.147,2.147,0,0,0,1.385-.32q2.023-1.285,4.333-2.72a32.117,32.117,0,0,1,5.314-2.681,15.165,15.165,0,0,1,5.523-1.036,13.632,13.632,0,0,1,6.345,1.586,1.956,1.956,0,0,1,1.147,1.83,5.278,5.278,0,0,1-1.079,2.85,10.461,10.461,0,0,1-2.221,2.477,10.163,10.163,0,0,1-3.27,1.465q-1.967.529-5.428,1.232Q13.992,105.2,11.28,106h-.04a4.082,4.082,0,0,0-2.493,5.489,5.753,5.753,0,0,0,.722,1.237,4.3,4.3,0,0,0,3.556,1.8,5.679,5.679,0,0,0,1.718-.309,24.45,24.45,0,0,1,8.116-1.457q6.044,0,8.444,3.672a8.989,8.989,0,0,1,1.518,4.9,5.877,5.877,0,0,1-2.48,4.941,23.874,23.874,0,0,1-5.724,3.268,17.285,17.285,0,0,1-6.2,1.058,35.32,35.32,0,0,1-6.224-.656,10.158,10.158,0,0,1-3.556-1.465,41.746,41.746,0,0,1-3.519-3.12.529.529,0,0,0-.233-.1,1.526,1.526,0,0,0-.341,0,.124.124,0,0,0-.045,0,6.221,6.221,0,0,0-2.594,2.023,21.878,21.878,0,0,0-1.29,2.771,7.812,7.812,0,0,0-.13,4.447,1.65,1.65,0,0,0,.74.9c.352.182.711.349,1.076.508a57.613,57.613,0,0,0,5.957,2.091,32.117,32.117,0,0,0,9.388,1.322,32.072,32.072,0,0,0,10.276-1.629,23.37,23.37,0,0,0,8.148-4.524,13.044,13.044,0,0,0,4.23-6.535,26.438,26.438,0,0,0,.96-6.662A14.044,14.044,0,0,0,38.6,111.528Z" transform="translate(747.342 -36.311)" fill="#fff"/>
    <path id="Path_4" data-name="Path 4" d="M188.464,29.2a11.588,11.588,0,0,1,.812,5.671A20.093,20.093,0,0,1,188,40.223a15.03,15.03,0,0,1-4.069,5.848A20.307,20.307,0,0,1,177.74,49.7a47.8,47.8,0,0,1-8.22,2.2,48.622,48.622,0,0,1-8.814.82q-10.192,0-16.127-4.693a3.945,3.945,0,0,1-1.52-3.173,6.184,6.184,0,0,1,.748-2.821c.093-.182.193-.362.3-.529a3.482,3.482,0,0,1,3.9-1.586,18.2,18.2,0,0,1,2.245.769q2.379.983,4.717,1.927a15.8,15.8,0,0,0,4.656,1.132q3.7.249,4.383.249a23.292,23.292,0,0,0,6.662-1.208,51.863,51.863,0,0,0,5.491-1.991,13.026,13.026,0,0,0,4.275-2.993,5.851,5.851,0,0,0,1.586-3.982A6.643,6.643,0,0,0,181.9,32.3q-.822-2.728-5.716-2.726a30.537,30.537,0,0,0-3.276.185q-1.729.185-4.2.51t-4.463.513q-1.991.185-3.741.185-1.52,0-3.556.164t-3.043.161a13.975,13.975,0,0,1-3.424-.386q-.7-.172-2.609-.412a8.1,8.1,0,0,1-3.059-.9,9.607,9.607,0,0,1-2.572-2.557A10.245,10.245,0,0,1,140,20.8a14.541,14.541,0,0,1,.529-3.749,23.628,23.628,0,0,1,6.242-8.265,40.372,40.372,0,0,1,10-5.882A35.758,35.758,0,0,1,163.186.714,35.025,35.025,0,0,1,169.909,0q4.058,0,6.691.264a21.489,21.489,0,0,1,5.243,1.229,26.454,26.454,0,0,1,4.9,2.5A2.379,2.379,0,0,1,187.863,6v.016a6.313,6.313,0,0,1-.931,3.236,4.982,4.982,0,0,1-2.253,2.163,7.876,7.876,0,0,1-3.173.822,2.781,2.781,0,0,1-1.192-.233,4.78,4.78,0,0,1-1.058-.706q-.558-.473-1.058-.828a4.037,4.037,0,0,0-1.269-.574,33.265,33.265,0,0,0-8.69-1.208,25.709,25.709,0,0,0-8.97,1.5,20.664,20.664,0,0,0-6.409,3.561,7.807,7.807,0,0,0-2.75,3.7,6.982,6.982,0,0,0,.246,1.586,1.615,1.615,0,0,0,1.023,1.256,27.3,27.3,0,0,0,9.388,1.388q2.509,0,7.506-.378t7.6-.381a28.674,28.674,0,0,1,6.345.635,9.938,9.938,0,0,1,3.437,2.332,11.659,11.659,0,0,1,1.951,3.2Q187.988,28.051,188.464,29.2Z" transform="translate(644.355 27)" fill="#d1212a"/>
  </g>
  <text id="SSSMANGA" transform="translate(107.317 62)" fill="#fff" font-size="56" font-family="PalatinoLinotype-Roman, Palatino Linotype"><tspan x="0" y="0">SSSMANGA</tspan></text>
</svg>
